<?xml version="1.0" encoding="UTF-8" standalone="no"?>
<svg
   xmlns:dc="http://purl.org/dc/elements/1.1/"
   xmlns:cc="http://creativecommons.org/ns#"
   xmlns:rdf="http://www.w3.org/1999/02/22-rdf-syntax-ns#"
   xmlns:svg="http://www.w3.org/2000/svg"
   xmlns="http://www.w3.org/2000/svg"
   id="svg8"
   version="1.1"
   viewBox="0 0 210 297"
   height="297mm"
   width="210mm">
  <defs
     id="defs2" />
  <metadata
     id="metadata5">
    <rdf:RDF>
      <cc:Work
         rdf:about="">
        <dc:format>image/svg+xml</dc:format>
        <dc:type
           rdf:resource="http://purl.org/dc/dcmitype/StillImage" />
        <dc:title></dc:title>
      </cc:Work>
    </rdf:RDF>
  </metadata>
  <g
     id="layer1">
    <rect
       ry="3.8478088"
       y="215.93362"
       x="-587.23694"
       height="312.40216"
       width="976.75098"
       id="rect1590"
       style="opacity:1;fill:#ffffff;fill-opacity:1;stroke:none;stroke-width:1;stroke-linecap:round;stroke-linejoin:round;stroke-miterlimit:4;stroke-dasharray:none;stroke-dashoffset:0;stroke-opacity:1;paint-order:fill markers stroke" />
    <rect
       ry="3.416538"
       y="-30.915264"
       x="-364.13852"
       height="42.015038"
       width="52.455139"
       id="rect815"
       style="opacity:1;fill:#ffffff;fill-opacity:1;stroke:none;stroke-width:2;stroke-linecap:round;stroke-linejoin:round;stroke-miterlimit:4;stroke-dasharray:none;stroke-dashoffset:0;stroke-opacity:1;paint-order:fill markers stroke" />
    <g
       transform="matrix(1.1118487,0,0,1.1118487,-488.96885,-129.14777)"
       id="g868">
      <g
         id="g842">
        <rect
           ry="8.4634686"
           y="122.3193"
           x="136.99448"
           height="40.99649"
           width="39.214035"
           id="rect819"
           style="opacity:1;fill:#6780ff;fill-opacity:1;stroke:none;stroke-width:10;stroke-linecap:round;stroke-linejoin:round;stroke-miterlimit:4;stroke-dasharray:none;stroke-dashoffset:0;stroke-opacity:1;paint-order:fill markers stroke" />
        <path
           id="path821"
           d="m 112.27278,126.13905 c 19.0872,-0.64791 38.99776,-6.73676 63.17182,-4.32902"
           style="fill:none;stroke:#000000;stroke-width:3.7366209;stroke-linecap:butt;stroke-linejoin:miter;stroke-miterlimit:4;stroke-dasharray:none;stroke-opacity:1" />
        <path
           id="path834"
           d="m 108.72982,169.17243 c 21.50958,6.70716 44.0939,0.51736 66.20552,0"
           style="fill:none;stroke:#000000;stroke-width:1;stroke-linecap:butt;stroke-linejoin:miter;stroke-miterlimit:4;stroke-dasharray:none;stroke-opacity:1" />
      </g>
      <g
         id="g858"
         transform="matrix(-1,0,0,1,397.14398,0)">
        <rect
           style="opacity:1;fill:#6780ff;fill-opacity:1;stroke:none;stroke-width:10;stroke-linecap:round;stroke-linejoin:round;stroke-miterlimit:4;stroke-dasharray:none;stroke-dashoffset:0;stroke-opacity:1;paint-order:fill markers stroke"
           id="rect852"
           width="39.214035"
           height="40.99649"
           x="136.99448"
           y="122.3193"
           ry="8.4634686" />
        <path
           style="fill:none;stroke:#000000;stroke-width:3.7366209;stroke-linecap:butt;stroke-linejoin:miter;stroke-miterlimit:4;stroke-dasharray:none;stroke-opacity:1"
           d="m 112.27278,126.13905 c 19.0872,-0.64791 38.99776,-6.73676 63.17182,-4.32902"
           id="path854" />
        <path
           style="fill:none;stroke:#000000;stroke-width:1;stroke-linecap:butt;stroke-linejoin:miter;stroke-miterlimit:4;stroke-dasharray:none;stroke-opacity:1"
           d="m 108.72982,169.17243 c 21.50958,6.70716 44.0939,0.51736 66.20552,0"
           id="path856" />
      </g>
    </g>
    <path
       id="path870"
       d="m -275.75939,85.286347 c 10.5115,-0.90665 10.76546,-0.1038 15.21475,0"
       style="fill:none;stroke:#000000;stroke-width:2.22369742;stroke-linecap:butt;stroke-linejoin:miter;stroke-miterlimit:4;stroke-dasharray:none;stroke-opacity:1" />
    <path
       id="path875"
       d="m -275.79272,-27.771266 a 10.310002,10.310002 0 0 0 -2.70423,6.94222 10.310002,10.310002 0 0 0 10.30997,10.30996 10.310002,10.310002 0 0 0 10.30996,-10.30996 10.310002,10.310002 0 0 0 -2.69958,-6.9386 7.6203875,7.6203875 0 0 1 0.0103,0.28577 7.6203875,7.6203875 0 0 1 -7.62072,7.62021 7.6203875,7.6203875 0 0 1 -7.62021,-7.62021 7.6203875,7.6203875 0 0 1 0.0145,-0.28939 z"
       style="opacity:1;fill:#6780ff;fill-opacity:1;stroke:none;stroke-width:2.22369742;stroke-linecap:round;stroke-linejoin:round;stroke-miterlimit:4;stroke-dasharray:none;stroke-dashoffset:0;stroke-opacity:1;paint-order:fill markers stroke" />
    <text
       id="text895"
       y="103.8185"
       x="-326.89847"
       style="font-style:normal;font-variant:normal;font-weight:bold;font-stretch:normal;font-size:10.84478855px;line-height:1.25;font-family:'Product Sans';-inkscape-font-specification:'Product Sans Bold';letter-spacing:2.71119714px;word-spacing:0px;fill:#000000;fill-opacity:1;stroke:none;stroke-width:0.27111971"
       xml:space="preserve"><tspan
         style="font-style:normal;font-variant:normal;font-weight:bold;font-stretch:normal;font-family:'Product Sans';-inkscape-font-specification:'Product Sans Bold';letter-spacing:2.71119714px;stroke-width:0.27111971"
         y="103.8185"
         x="-326.89847"
         id="tspan893">lengoccuong757</tspan></text>
    <g
       id="layer1-0" />
    <g
       id="g1580"
       transform="matrix(1.1118487,0,0,1.1118487,-606.41025,223.17642)">
      <g
         id="g1570">
        <rect
           style="opacity:1;fill:#6780ff;fill-opacity:1;stroke:none;stroke-width:10;stroke-linecap:round;stroke-linejoin:round;stroke-miterlimit:4;stroke-dasharray:none;stroke-dashoffset:0;stroke-opacity:1;paint-order:fill markers stroke"
           id="rect1564"
           width="39.214035"
           height="40.99649"
           x="136.99448"
           y="122.3193"
           ry="8.4634686" />
        <path
           style="fill:none;stroke:#000000;stroke-width:3.7366209;stroke-linecap:butt;stroke-linejoin:miter;stroke-miterlimit:4;stroke-dasharray:none;stroke-opacity:1"
           d="m 112.27278,126.13905 c 19.0872,-0.64791 38.99776,-6.73676 63.17182,-4.32902"
           id="path1566" />
        <path
           style="fill:none;stroke:#000000;stroke-width:1;stroke-linecap:butt;stroke-linejoin:miter;stroke-miterlimit:4;stroke-dasharray:none;stroke-opacity:1"
           d="m 108.72982,169.17243 c 21.50958,6.70716 44.0939,0.51736 66.20552,0"
           id="path1568" />
      </g>
      <g
         transform="matrix(-1,0,0,1,397.14398,0)"
         id="g1578">
        <rect
           ry="8.4634686"
           y="122.3193"
           x="136.99448"
           height="40.99649"
           width="39.214035"
           id="rect1572"
           style="opacity:1;fill:#6780ff;fill-opacity:1;stroke:none;stroke-width:10;stroke-linecap:round;stroke-linejoin:round;stroke-miterlimit:4;stroke-dasharray:none;stroke-dashoffset:0;stroke-opacity:1;paint-order:fill markers stroke" />
        <path
           id="path1574"
           d="m 112.27278,126.13905 c 19.0872,-0.64791 38.99776,-6.73676 63.17182,-4.32902"
           style="fill:none;stroke:#000000;stroke-width:3.7366209;stroke-linecap:butt;stroke-linejoin:miter;stroke-miterlimit:4;stroke-dasharray:none;stroke-opacity:1" />
        <path
           id="path1576"
           d="m 108.72982,169.17243 c 21.50958,6.70716 44.0939,0.51736 66.20552,0"
           style="fill:none;stroke:#000000;stroke-width:1;stroke-linecap:butt;stroke-linejoin:miter;stroke-miterlimit:4;stroke-dasharray:none;stroke-opacity:1" />
      </g>
    </g>
    <path
       style="fill:none;stroke:#000000;stroke-width:2.22369742;stroke-linecap:butt;stroke-linejoin:miter;stroke-miterlimit:4;stroke-dasharray:none;stroke-opacity:1"
       d="m -393.20079,437.61054 c 10.5115,-0.90665 10.76546,-0.1038 15.21475,0"
       id="path1582" />
    <path
       style="opacity:1;fill:#6780ff;fill-opacity:1;stroke:none;stroke-width:2.22369742;stroke-linecap:round;stroke-linejoin:round;stroke-miterlimit:4;stroke-dasharray:none;stroke-dashoffset:0;stroke-opacity:1;paint-order:fill markers stroke"
       d="m -393.23412,324.55292 a 10.310002,10.310002 0 0 0 -2.70423,6.94222 10.310002,10.310002 0 0 0 10.30997,10.30996 10.310002,10.310002 0 0 0 10.30996,-10.30996 10.310002,10.310002 0 0 0 -2.69958,-6.9386 7.6203875,7.6203875 0 0 1 0.0103,0.28577 7.6203875,7.6203875 0 0 1 -7.62072,7.62021 7.6203875,7.6203875 0 0 1 -7.62021,-7.62021 7.6203875,7.6203875 0 0 1 0.0145,-0.28939 z"
       id="path1584" />
    <text
       xml:space="preserve"
       style="font-style:normal;font-variant:normal;font-weight:bold;font-stretch:normal;font-size:53.09831238px;line-height:1.25;font-family:'Product Sans';-inkscape-font-specification:'Product Sans Bold';letter-spacing:13.27457809px;word-spacing:0px;fill:#000000;fill-opacity:1;stroke:none;stroke-width:1.32745779"
       x="-251.92993"
       y="357.76993"
       id="text1588"><tspan
         id="tspan1586"
         x="-251.92993"
         y="357.76993"
         style="font-style:normal;font-variant:normal;font-weight:bold;font-stretch:normal;font-family:'Product Sans';-inkscape-font-specification:'Product Sans Bold';letter-spacing:13.27457809px;stroke-width:1.32745779">lengoccuong757</tspan><tspan
         id="tspan1632"
         x="-251.92993"
         y="424.14282"
         style="font-style:normal;font-variant:normal;font-weight:bold;font-stretch:normal;font-family:'Product Sans';-inkscape-font-specification:'Product Sans Bold';letter-spacing:13.27457809px;stroke-width:1.32745779">alexberga757 </tspan></text>
    <g
       transform="matrix(1.1118487,0,0,1.1118487,-606.41025,681.75711)"
       id="g1622">
      <g
         id="g1612">
        <rect
           ry="8.4634686"
           y="122.3193"
           x="136.99448"
           height="40.99649"
           width="39.214035"
           id="rect1606"
           style="opacity:1;fill:#6780ff;fill-opacity:1;stroke:none;stroke-width:10;stroke-linecap:round;stroke-linejoin:round;stroke-miterlimit:4;stroke-dasharray:none;stroke-dashoffset:0;stroke-opacity:1;paint-order:fill markers stroke" />
        <path
           id="path1608"
           d="m 112.27278,126.13905 c 19.0872,-0.64791 38.99776,-6.73676 63.17182,-4.32902"
           style="fill:none;stroke:#000000;stroke-width:3.7366209;stroke-linecap:butt;stroke-linejoin:miter;stroke-miterlimit:4;stroke-dasharray:none;stroke-opacity:1" />
        <path
           id="path1610"
           d="m 108.72982,169.17243 c 21.50958,6.70716 44.0939,0.51736 66.20552,0"
           style="fill:none;stroke:#000000;stroke-width:1;stroke-linecap:butt;stroke-linejoin:miter;stroke-miterlimit:4;stroke-dasharray:none;stroke-opacity:1" />
      </g>
      <g
         id="g1620"
         transform="matrix(-1,0,0,1,397.14398,0)">
        <rect
           style="opacity:1;fill:#6780ff;fill-opacity:1;stroke:none;stroke-width:10;stroke-linecap:round;stroke-linejoin:round;stroke-miterlimit:4;stroke-dasharray:none;stroke-dashoffset:0;stroke-opacity:1;paint-order:fill markers stroke"
           id="rect1614"
           width="39.214035"
           height="40.99649"
           x="136.99448"
           y="122.3193"
           ry="8.4634686" />
        <path
           style="fill:none;stroke:#000000;stroke-width:3.7366209;stroke-linecap:butt;stroke-linejoin:miter;stroke-miterlimit:4;stroke-dasharray:none;stroke-opacity:1"
           d="m 112.27278,126.13905 c 19.0872,-0.64791 38.99776,-6.73676 63.17182,-4.32902"
           id="path1616" />
        <path
           style="fill:none;stroke:#000000;stroke-width:1;stroke-linecap:butt;stroke-linejoin:miter;stroke-miterlimit:4;stroke-dasharray:none;stroke-opacity:1"
           d="m 108.72982,169.17243 c 21.50958,6.70716 44.0939,0.51736 66.20552,0"
           id="path1618" />
      </g>
    </g>
    <path
       id="path1624"
       d="m -393.20079,896.19123 c 10.5115,-0.90665 10.76546,-0.1038 15.21475,0"
       style="fill:none;stroke:#000000;stroke-width:2.22369742;stroke-linecap:butt;stroke-linejoin:miter;stroke-miterlimit:4;stroke-dasharray:none;stroke-opacity:1" />
    <path
       id="path1626"
       d="m -393.23412,783.13361 a 10.310002,10.310002 0 0 0 -2.70423,6.94222 10.310002,10.310002 0 0 0 10.30997,10.30996 10.310002,10.310002 0 0 0 10.30996,-10.30996 10.310002,10.310002 0 0 0 -2.69958,-6.9386 7.6203875,7.6203875 0 0 1 0.0103,0.28577 7.6203875,7.6203875 0 0 1 -7.62072,7.62021 7.6203875,7.6203875 0 0 1 -7.62021,-7.62021 7.6203875,7.6203875 0 0 1 0.0145,-0.28939 z"
       style="opacity:1;fill:#6780ff;fill-opacity:1;stroke:none;stroke-width:2.22369742;stroke-linecap:round;stroke-linejoin:round;stroke-miterlimit:4;stroke-dasharray:none;stroke-dashoffset:0;stroke-opacity:1;paint-order:fill markers stroke" />
    <text
       id="text1630"
       y="859.69214"
       x="-251.92993"
       style="font-style:normal;font-variant:normal;font-weight:bold;font-stretch:normal;font-size:53.09831238px;line-height:1.25;font-family:'Product Sans';-inkscape-font-specification:'Product Sans Bold';letter-spacing:13.27457809px;word-spacing:0px;fill:#000000;fill-opacity:1;stroke:none;stroke-width:1.32745779"
       xml:space="preserve"><tspan
         style="font-style:normal;font-variant:normal;font-weight:bold;font-stretch:normal;font-family:'Product Sans';-inkscape-font-specification:'Product Sans Bold';letter-spacing:13.27457809px;stroke-width:1.32745779"
         y="859.69214"
         x="-251.92993"
         id="tspan1628">lengoccuong757</tspan></text>
  </g>
</svg>
